<svg width="1500" height="500" viewBox="0 0 1500 500" fill="none" xmlns="http://www.w3.org/2000/svg">
<rect width="1500" height="500" fill="#1E1E1E"/>
<path fill-rule="evenodd" clip-rule="evenodd" d="M450.479 196.591L433.421 196.59V196.591C433.421 199.923 432.797 203.11 431.659 206.04C430.979 202.999 430.621 199.836 430.621 196.59C430.621 172.751 449.947 153.425 473.786 153.425C497.625 153.425 516.951 172.751 516.951 196.59C516.951 220.429 497.625 239.755 473.786 239.755C462.301 239.755 451.864 235.27 444.13 227.955C444.694 227.286 445.24 226.601 445.765 225.9C449.556 220.934 452.407 215.211 454.052 208.998C458.179 215.547 465.475 219.899 473.788 219.899C486.661 219.899 497.097 209.463 497.097 196.59C497.097 183.716 486.661 173.281 473.788 173.281C460.914 173.281 450.479 183.716 450.479 196.59C450.479 196.59 450.479 196.59 450.479 196.591Z" fill="white"/>
<path d="M507.028 125C501.544 125 497.1 129.445 497.1 134.928L497.1 154.225C505.612 158.919 512.558 166.103 516.955 174.795V134.928C516.955 129.445 512.511 125 507.028 125Z" fill="white"/>
<path fill-rule="evenodd" clip-rule="evenodd" d="M407.315 153.425L407.317 153.425V153.434C407.46 153.428 407.604 153.425 407.748 153.425C413.231 153.425 417.676 157.87 417.676 163.353C417.676 168.836 413.231 173.281 407.748 173.281C407.604 173.281 407.46 173.278 407.317 173.271V173.28H407.315C394.441 173.28 384.006 183.716 384.006 196.589C384.006 209.462 394.441 219.898 407.315 219.898C420.188 219.898 430.624 209.463 430.624 196.589H450.48V196.59C450.48 220.429 431.155 239.754 407.315 239.754C383.476 239.754 364.15 220.429 364.15 196.59C364.15 172.75 383.476 153.425 407.315 153.425Z" fill="white"/>
<circle cx="474.221" cy="196.59" r="9.92794" fill="#20A4F3"/>
<path d="M1100.52 230.726C1098.8 230.726 1097.35 230.177 1096.17 229.079C1095.07 227.902 1094.52 226.451 1094.52 224.726V195.784C1094.52 191.314 1093.7 187.667 1092.05 184.843C1090.41 182.02 1088.17 179.941 1085.35 178.608C1082.6 177.196 1079.43 176.49 1075.82 176.49C1072.52 176.49 1069.54 177.157 1066.88 178.49C1064.21 179.824 1062.09 181.628 1060.52 183.902C1058.96 186.098 1058.17 188.647 1058.17 191.549H1050.76C1050.76 186.608 1051.94 182.216 1054.29 178.373C1056.72 174.451 1060.02 171.353 1064.17 169.079C1068.33 166.804 1073 165.667 1078.17 165.667C1083.58 165.667 1088.41 166.843 1092.64 169.196C1096.96 171.471 1100.33 174.843 1102.76 179.314C1105.27 183.784 1106.52 189.275 1106.52 195.784V224.726C1106.52 226.451 1105.94 227.902 1104.76 229.079C1103.66 230.177 1102.25 230.726 1100.52 230.726ZM1052.17 230.726C1050.45 230.726 1049 230.177 1047.82 229.079C1046.72 227.902 1046.17 226.451 1046.17 224.726V172.255C1046.17 170.451 1046.72 169 1047.82 167.902C1049 166.804 1050.45 166.255 1052.17 166.255C1053.98 166.255 1055.43 166.804 1056.52 167.902C1057.62 169 1058.17 170.451 1058.17 172.255V224.726C1058.17 226.451 1057.62 227.902 1056.52 229.079C1055.43 230.177 1053.98 230.726 1052.17 230.726Z" fill="white"/>
<path d="M993.605 231.078C987.723 231.078 982.507 229.706 977.958 226.961C973.487 224.137 969.958 220.294 967.37 215.431C964.781 210.49 963.487 204.843 963.487 198.49C963.487 192.059 964.86 186.411 967.605 181.549C970.429 176.607 974.272 172.764 979.134 170.019C983.997 167.196 989.605 165.784 995.958 165.784C1002.23 165.784 1007.8 167.196 1012.66 170.019C1017.53 172.764 1021.33 176.607 1024.08 181.549C1026.9 186.411 1028.31 192.059 1028.31 198.49H1021.37C1021.37 204.843 1020.15 210.49 1017.72 215.431C1015.37 220.294 1012.11 224.137 1007.96 226.961C1003.8 229.706 999.017 231.078 993.605 231.078ZM995.723 257.314C990.154 257.314 984.938 256.216 980.076 254.019C975.213 251.823 971.095 248.608 967.723 244.372C966.703 243.039 966.311 241.667 966.546 240.255C966.86 238.843 967.644 237.706 968.899 236.843C970.311 235.902 971.762 235.588 973.252 235.902C974.821 236.216 976.076 237 977.017 238.255C979.134 240.921 981.801 243 985.017 244.49C988.232 245.98 991.88 246.725 995.958 246.725C999.723 246.725 1003.17 245.823 1006.31 244.019C1009.53 242.216 1012.08 239.549 1013.96 236.019C1015.84 232.49 1016.78 228.176 1016.78 223.078V206.372L1020.66 196.019L1028.31 198.49V223.902C1028.31 230.098 1026.94 235.706 1024.19 240.725C1021.45 245.823 1017.61 249.863 1012.66 252.843C1007.8 255.823 1002.15 257.314 995.723 257.314ZM995.958 220.49C1000.04 220.49 1003.64 219.549 1006.78 217.666C1009.92 215.784 1012.35 213.196 1014.08 209.902C1015.88 206.608 1016.78 202.804 1016.78 198.49C1016.78 194.176 1015.88 190.372 1014.08 187.078C1012.35 183.706 1009.92 181.078 1006.78 179.196C1003.64 177.313 1000.04 176.372 995.958 176.372C991.88 176.372 988.272 177.313 985.134 179.196C981.997 181.078 979.527 183.706 977.723 187.078C975.919 190.372 975.017 194.176 975.017 198.49C975.017 202.804 975.919 206.608 977.723 209.902C979.527 213.196 981.997 215.784 985.134 217.666C988.272 219.549 991.88 220.49 995.958 220.49Z" fill="white"/>
<path d="M938.456 230.608C936.731 230.608 935.28 230.058 934.103 228.96C933.005 227.784 932.456 226.333 932.456 224.607V172.254C932.456 170.45 933.005 169 934.103 167.901C935.28 166.803 936.731 166.254 938.456 166.254C940.26 166.254 941.711 166.803 942.809 167.901C943.907 169 944.456 170.45 944.456 172.254V224.607C944.456 226.333 943.907 227.784 942.809 228.96C941.711 230.058 940.26 230.608 938.456 230.608Z" fill="white"/>
<path d="M890.813 231.078C885.323 231.078 880.225 230.255 875.519 228.608C870.892 226.882 867.284 224.725 864.696 222.137C863.519 220.882 863.009 219.47 863.166 217.902C863.402 216.255 864.186 214.921 865.519 213.902C867.088 212.647 868.617 212.137 870.108 212.372C871.676 212.529 873.01 213.196 874.108 214.372C875.441 215.863 877.559 217.274 880.461 218.608C883.441 219.863 886.735 220.49 890.343 220.49C894.892 220.49 898.343 219.745 900.696 218.255C903.127 216.764 904.382 214.843 904.461 212.49C904.539 210.137 903.402 208.098 901.049 206.372C898.774 204.647 894.578 203.235 888.461 202.137C880.539 200.568 874.774 198.215 871.166 195.078C867.637 191.941 865.872 188.098 865.872 183.549C865.872 179.549 867.049 176.255 869.402 173.666C871.755 171 874.774 169.039 878.461 167.784C882.147 166.451 885.99 165.784 889.99 165.784C895.166 165.784 899.755 166.607 903.755 168.255C907.755 169.902 910.931 172.176 913.284 175.078C914.382 176.333 914.892 177.666 914.814 179.078C914.735 180.411 914.068 181.549 912.814 182.49C911.559 183.353 910.068 183.627 908.343 183.313C906.617 183 905.166 182.294 903.99 181.196C902.029 179.313 899.912 178.019 897.637 177.313C895.363 176.607 892.735 176.255 889.755 176.255C886.304 176.255 883.362 176.843 880.931 178.019C878.578 179.196 877.402 180.921 877.402 183.196C877.402 184.608 877.755 185.902 878.461 187.078C879.245 188.176 880.735 189.196 882.931 190.137C885.127 191 888.343 191.862 892.578 192.725C898.461 193.902 903.088 195.392 906.461 197.196C909.912 199 912.382 201.117 913.872 203.549C915.363 205.902 916.108 208.647 916.108 211.784C916.108 215.392 915.127 218.647 913.166 221.549C911.284 224.451 908.461 226.764 904.696 228.49C901.01 230.215 896.382 231.078 890.813 231.078Z" fill="white"/>
<path d="M824.568 231.078C818.058 231.078 812.254 229.706 807.156 226.961C802.136 224.137 798.175 220.294 795.273 215.431C792.45 210.49 791.038 204.843 791.038 198.49C791.038 192.059 792.371 186.411 795.038 181.549C797.783 176.607 801.548 172.764 806.332 170.019C811.117 167.196 816.607 165.784 822.803 165.784C828.921 165.784 834.175 167.156 838.568 169.902C842.96 172.568 846.293 176.294 848.568 181.078C850.921 185.784 852.097 191.235 852.097 197.431C852.097 198.921 851.587 200.176 850.568 201.196C849.548 202.137 848.254 202.608 846.685 202.608H799.273V193.196H846.332L841.509 196.49C841.43 192.568 840.646 189.078 839.156 186.019C837.666 182.882 835.548 180.411 832.803 178.607C830.058 176.804 826.724 175.902 822.803 175.902C818.332 175.902 814.489 176.882 811.273 178.843C808.136 180.804 805.744 183.509 804.097 186.96C802.45 190.333 801.626 194.176 801.626 198.49C801.626 202.804 802.607 206.647 804.568 210.019C806.528 213.392 809.234 216.059 812.685 218.019C816.136 219.98 820.097 220.961 824.568 220.961C826.999 220.961 829.47 220.529 831.979 219.666C834.568 218.725 836.646 217.666 838.215 216.49C839.391 215.627 840.646 215.196 841.979 215.196C843.391 215.117 844.607 215.51 845.626 216.372C846.96 217.549 847.666 218.843 847.744 220.255C847.823 221.666 847.195 222.882 845.862 223.902C843.195 226.019 839.862 227.745 835.862 229.078C831.94 230.412 828.175 231.078 824.568 231.078Z" fill="white"/>
<path d="M740.788 231.079C734.67 231.079 729.141 229.667 724.2 226.843C719.337 223.941 715.455 220.02 712.553 215.078C709.729 210.137 708.317 204.569 708.317 198.373C708.317 192.176 709.611 186.647 712.2 181.784C714.866 176.843 718.474 172.961 723.023 170.137C727.572 167.235 732.71 165.784 738.435 165.784C743.063 165.784 747.337 166.765 751.259 168.725C755.18 170.608 758.474 173.196 761.141 176.49V144.725C761.141 142.921 761.69 141.47 762.788 140.372C763.965 139.274 765.416 138.725 767.141 138.725C768.945 138.725 770.396 139.274 771.494 140.372C772.592 141.47 773.141 142.921 773.141 144.725V198.373C773.141 204.569 771.69 210.137 768.788 215.078C765.965 220.02 762.121 223.941 757.259 226.843C752.396 229.667 746.906 231.079 740.788 231.079ZM740.788 220.49C744.788 220.49 748.357 219.549 751.494 217.667C754.631 215.706 757.102 213.039 758.906 209.667C760.71 206.294 761.612 202.529 761.612 198.373C761.612 194.137 760.71 190.373 758.906 187.078C757.102 183.784 754.631 181.196 751.494 179.314C748.357 177.353 744.788 176.372 740.788 176.372C736.866 176.372 733.298 177.353 730.082 179.314C726.945 181.196 724.435 183.784 722.553 187.078C720.749 190.373 719.847 194.137 719.847 198.373C719.847 202.529 720.749 206.294 722.553 209.667C724.435 213.039 726.945 215.706 730.082 217.667C733.298 219.549 736.866 220.49 740.788 220.49Z" fill="white"/>
<path d="M661.398 231.078C655.045 231.078 649.438 229.706 644.575 226.961C639.712 224.137 635.869 220.294 633.045 215.431C630.3 210.49 628.928 204.843 628.928 198.49C628.928 192.059 630.3 186.411 633.045 181.549C635.869 176.607 639.712 172.764 644.575 170.019C649.438 167.196 655.045 165.784 661.398 165.784C667.673 165.784 673.242 167.196 678.104 170.019C682.967 172.764 686.771 176.607 689.516 181.549C692.34 186.411 693.751 192.059 693.751 198.49C693.751 204.843 692.379 210.49 689.634 215.431C686.889 220.294 683.085 224.137 678.222 226.961C673.359 229.706 667.751 231.078 661.398 231.078ZM661.398 220.49C665.477 220.49 669.085 219.549 672.222 217.666C675.359 215.784 677.791 213.196 679.516 209.902C681.32 206.608 682.222 202.804 682.222 198.49C682.222 194.176 681.32 190.372 679.516 187.078C677.791 183.706 675.359 181.078 672.222 179.196C669.085 177.313 665.477 176.372 661.398 176.372C657.32 176.372 653.712 177.313 650.575 179.196C647.438 181.078 644.967 183.706 643.163 187.078C641.359 190.372 640.457 194.176 640.457 198.49C640.457 202.804 641.359 206.608 643.163 209.902C644.967 213.196 647.438 215.784 650.575 217.666C653.712 219.549 657.32 220.49 661.398 220.49Z" fill="white"/>
<path d="M590.74 231.078C584.466 231.078 578.858 229.666 573.917 226.843C569.054 223.941 565.211 220.059 562.387 215.196C559.642 210.255 558.27 204.686 558.27 198.49C558.27 192.137 559.642 186.49 562.387 181.549C565.132 176.607 568.897 172.764 573.681 170.019C578.466 167.196 583.956 165.784 590.152 165.784C594.779 165.784 599.015 166.686 602.858 168.49C606.701 170.215 610.152 172.843 613.211 176.372C614.309 177.627 614.701 178.921 614.387 180.255C614.074 181.588 613.211 182.764 611.799 183.784C610.701 184.568 609.485 184.843 608.152 184.608C606.819 184.294 605.603 183.588 604.505 182.49C600.662 178.411 595.877 176.372 590.152 176.372C586.152 176.372 582.623 177.313 579.564 179.196C576.505 181 574.113 183.549 572.387 186.843C570.662 190.137 569.799 194.019 569.799 198.49C569.799 202.725 570.662 206.49 572.387 209.784C574.191 213.078 576.662 215.706 579.799 217.666C582.936 219.549 586.583 220.49 590.74 220.49C593.485 220.49 595.877 220.176 597.917 219.549C600.034 218.843 601.956 217.784 603.681 216.372C604.936 215.353 606.23 214.804 607.564 214.725C608.897 214.568 610.074 214.921 611.093 215.784C612.427 216.882 613.172 218.137 613.329 219.549C613.485 220.882 613.015 222.098 611.917 223.196C606.27 228.451 599.211 231.078 590.74 231.078Z" fill="white"/>
<circle cx="938.449" cy="148.02" r="7.76473" fill="#20A4F3"/>
<circle cx="1129.43" cy="223.903" r="7.76473" fill="#20A4F3"/>
<path d="M363 287.442L1136.04 287.442" stroke="white" stroke-width="10" stroke-linecap="round"/>
<path d="M473.201 347.629L478.756 328.802H480.496L479.09 334.392L473.166 354.396H471.496L473.201 347.629ZM466.75 328.802L471.426 347.453L472.832 354.396H471.092L464.535 328.802H466.75ZM487.985 347.453L492.59 328.802H494.805L488.266 354.396H486.526L487.985 347.453ZM480.69 328.802L486.174 347.629L487.861 354.396H486.192L480.391 334.392L478.967 328.802H480.69ZM526.057 352.551V354.396H511.66V352.551H526.057ZM512.311 328.802V354.396H510.148V328.802H512.311ZM524.264 340.281V342.127H511.66V340.281H524.264ZM525.969 328.802V330.666H511.66V328.802H525.969ZM550.611 342.092H543.404L543.369 340.263H549.574C550.84 340.263 551.918 340.082 552.808 339.719C553.699 339.355 554.373 338.816 554.83 338.101C555.299 337.375 555.533 336.484 555.533 335.429C555.533 334.351 555.305 333.461 554.847 332.758C554.39 332.043 553.705 331.515 552.791 331.176C551.877 330.836 550.728 330.666 549.346 330.666H543.967V354.396H541.805V328.802H549.346C550.646 328.802 551.812 328.931 552.844 329.189C553.875 329.447 554.754 329.851 555.48 330.402C556.207 330.953 556.758 331.65 557.133 332.494C557.519 333.326 557.713 334.322 557.713 335.482C557.713 336.537 557.478 337.492 557.01 338.347C556.541 339.191 555.879 339.883 555.023 340.422C554.18 340.949 553.166 341.277 551.982 341.406L550.611 342.092ZM550.453 354.396H542.719L543.826 352.551H550.453C551.719 352.551 552.797 352.34 553.687 351.918C554.59 351.484 555.281 350.869 555.762 350.072C556.242 349.275 556.482 348.326 556.482 347.224C556.482 346.252 556.271 345.379 555.849 344.605C555.428 343.832 554.783 343.222 553.916 342.777C553.049 342.32 551.947 342.092 550.611 342.092H546.129L546.164 340.263H552.51L552.896 340.914C554.045 341.031 555.047 341.388 555.902 341.986C556.769 342.572 557.437 343.316 557.906 344.219C558.387 345.121 558.627 346.111 558.627 347.189C558.627 348.736 558.281 350.049 557.59 351.127C556.91 352.193 555.955 353.008 554.724 353.57C553.506 354.121 552.082 354.396 550.453 354.396ZM590.986 346.416H593.148C592.972 348.138 592.498 349.627 591.724 350.881C590.951 352.123 589.896 353.078 588.56 353.746C587.224 354.414 585.613 354.748 583.726 354.748C582.273 354.748 580.955 354.472 579.771 353.922C578.599 353.371 577.591 352.592 576.748 351.584C575.904 350.564 575.254 349.345 574.797 347.927C574.34 346.51 574.111 344.933 574.111 343.199V340C574.111 338.265 574.34 336.695 574.797 335.289C575.254 333.871 575.91 332.652 576.765 331.633C577.621 330.613 578.646 329.828 579.841 329.277C581.037 328.726 582.384 328.451 583.884 328.451C585.701 328.451 587.271 328.785 588.595 329.453C589.92 330.109 590.963 331.058 591.724 332.301C592.498 333.543 592.972 335.043 593.148 336.801H590.986C590.822 335.418 590.459 334.246 589.896 333.285C589.334 332.324 588.554 331.592 587.558 331.088C586.574 330.572 585.349 330.314 583.884 330.314C582.689 330.314 581.623 330.543 580.685 331C579.748 331.457 578.951 332.113 578.295 332.969C577.638 333.812 577.134 334.826 576.783 336.01C576.443 337.193 576.273 338.511 576.273 339.965V343.199C576.273 344.605 576.437 345.9 576.765 347.084C577.093 348.267 577.574 349.293 578.207 350.16C578.851 351.027 579.636 351.701 580.562 352.181C581.488 352.662 582.543 352.902 583.726 352.902C585.238 352.902 586.498 352.662 587.506 352.181C588.525 351.689 589.316 350.963 589.879 350.002C590.441 349.041 590.81 347.845 590.986 346.416ZM609.529 328.802H617.843C619.613 328.802 621.148 329.09 622.449 329.664C623.75 330.238 624.751 331.088 625.455 332.213C626.169 333.326 626.527 334.697 626.527 336.326C626.527 337.533 626.269 338.629 625.753 339.613C625.25 340.597 624.552 341.424 623.662 342.092C622.771 342.748 621.74 343.199 620.568 343.445L619.812 343.726H610.935L610.9 341.881H618.335C619.671 341.881 620.785 341.623 621.675 341.107C622.566 340.592 623.234 339.912 623.679 339.068C624.136 338.213 624.365 337.299 624.365 336.326C624.365 335.166 624.113 334.164 623.609 333.32C623.117 332.465 622.384 331.808 621.412 331.351C620.439 330.894 619.25 330.666 617.843 330.666H611.691V354.396H609.529V328.802ZM625.332 354.396L618.705 342.953L621.025 342.935L627.634 354.168V354.396H625.332ZM659.536 352.551V354.396H645.14V352.551H659.536ZM645.79 328.802V354.396H643.628V328.802H645.79ZM657.744 340.281V342.127H645.14V340.281H657.744ZM659.449 328.802V330.666H645.14V328.802H659.449ZM683.687 330.332L674.827 354.396H672.577L682.245 328.802H683.81L683.687 330.332ZM691.737 354.396L682.861 330.332L682.737 328.802H684.302L693.987 354.396H691.737ZM690.155 345.361V347.224H676.568V345.361H690.155ZM715.237 328.802V354.396H713.093V328.802H715.237ZM724.009 328.802V330.666H704.339V328.802H724.009ZM741.972 328.802V354.396H739.809V328.802H741.972ZM768.091 351.215L776.159 328.802H778.514L768.987 354.396H767.247L768.091 351.215ZM759.759 328.802L767.792 351.215L768.671 354.396H766.913L757.403 328.802H759.759ZM809.379 352.551V354.396H794.983V352.551H809.379ZM795.633 328.802V354.396H793.471V328.802H795.633ZM807.586 340.281V342.127H794.983V340.281H807.586ZM809.292 328.802V330.666H794.983V328.802H809.292ZM853.479 330.332L844.619 354.396H842.369L852.037 328.802H853.602L853.479 330.332ZM861.53 354.396L852.653 330.332L852.53 328.802H854.094L863.78 354.396H861.53ZM859.947 345.361V347.224H846.36V345.361H859.947ZM896.982 342.232V351.338C896.69 351.771 896.186 352.252 895.471 352.779C894.756 353.306 893.795 353.769 892.588 354.168C891.381 354.554 889.881 354.748 888.088 354.748C886.588 354.748 885.211 354.478 883.957 353.939C882.703 353.4 881.613 352.621 880.688 351.601C879.773 350.57 879.065 349.334 878.561 347.892C878.068 346.451 877.822 344.834 877.822 343.041V339.947C877.822 338.189 878.051 336.607 878.508 335.201C878.965 333.783 879.627 332.57 880.494 331.562C881.361 330.554 882.404 329.787 883.623 329.26C884.854 328.72 886.231 328.451 887.754 328.451C889.652 328.451 891.252 328.779 892.553 329.435C893.854 330.092 894.867 330.994 895.594 332.142C896.332 333.279 896.789 334.568 896.965 336.01H894.803C894.639 334.99 894.299 334.052 893.783 333.197C893.268 332.33 892.518 331.633 891.533 331.105C890.561 330.578 889.301 330.314 887.754 330.314C886.512 330.314 885.404 330.543 884.432 331C883.471 331.457 882.662 332.107 882.006 332.951C881.35 333.795 880.852 334.808 880.512 335.992C880.172 337.164 880.002 338.47 880.002 339.912V343.041C880.002 344.541 880.19 345.894 880.565 347.101C880.951 348.308 881.502 349.345 882.217 350.213C882.932 351.08 883.787 351.748 884.783 352.217C885.779 352.674 886.887 352.902 888.106 352.902C889.406 352.902 890.514 352.779 891.428 352.533C892.342 352.287 893.074 351.994 893.625 351.654C894.188 351.302 894.592 350.974 894.838 350.67V344.078H887.965V342.232H896.982ZM930.238 352.551V354.396H915.842V352.551H930.238ZM916.492 328.802V354.396H914.33V328.802H916.492ZM928.445 340.281V342.127H915.842V340.281H928.445ZM930.15 328.802V330.666H915.842V328.802H930.15ZM965.041 328.802V354.396H962.861L948.148 332.529V354.396H945.986V328.802H948.148L962.896 350.67V328.802H965.041ZM998.683 346.416H1000.85C1000.67 348.138 1000.19 349.627 999.422 350.881C998.648 352.123 997.593 353.078 996.257 353.746C994.922 354.414 993.31 354.748 991.423 354.748C989.97 354.748 988.652 354.472 987.468 353.922C986.297 353.371 985.289 352.592 984.445 351.584C983.601 350.564 982.951 349.345 982.494 347.927C982.037 346.51 981.808 344.933 981.808 343.199V340C981.808 338.265 982.037 336.695 982.494 335.289C982.951 333.871 983.607 332.652 984.463 331.633C985.318 330.613 986.343 329.828 987.539 329.277C988.734 328.726 990.082 328.451 991.582 328.451C993.398 328.451 994.968 328.785 996.293 329.453C997.617 330.109 998.66 331.058 999.422 332.301C1000.19 333.543 1000.67 335.043 1000.85 336.801H998.683C998.519 335.418 998.156 334.246 997.593 333.285C997.031 332.324 996.252 331.592 995.255 331.088C994.271 330.572 993.047 330.314 991.582 330.314C990.386 330.314 989.32 330.543 988.382 331C987.445 331.457 986.648 332.113 985.992 332.969C985.336 333.812 984.832 334.826 984.48 336.01C984.14 337.193 983.97 338.511 983.97 339.965V343.199C983.97 344.605 984.134 345.9 984.463 347.084C984.791 348.267 985.271 349.293 985.904 350.16C986.548 351.027 987.334 351.701 988.259 352.181C989.185 352.662 990.24 352.902 991.423 352.902C992.935 352.902 994.195 352.662 995.203 352.181C996.222 351.689 997.013 350.963 997.576 350.002C998.138 349.041 998.507 347.845 998.683 346.416ZM1017.02 328.802L1024.77 342.742L1032.59 328.802H1035.09L1025.86 344.746V354.396H1023.69V344.746L1014.45 328.802H1017.02Z" fill="white"/>
</svg>
